<mxfile host="65bd71144e">
    <diagram id="9zXRn1YOJkydu3qamGhx" name="Page-1">
        <mxGraphModel dx="415" dy="325" grid="1" gridSize="10" guides="1" tooltips="1" connect="1" arrows="1" fold="1" page="1" pageScale="1" pageWidth="850" pageHeight="1100" math="0" shadow="0">
            <root>
                <mxCell id="0"/>
                <mxCell id="1" parent="0"/>
                <mxCell id="2" value="Alice&lt;br&gt;(3&amp;nbsp;&lt;span style=&quot;&quot;&gt;xEGLD&lt;/span&gt;)" style="shape=umlActor;verticalLabelPosition=bottom;verticalAlign=top;html=1;outlineConnect=0;" parent="1" vertex="1">
                    <mxGeometry x="140" y="100" width="30" height="60" as="geometry"/>
                </mxCell>
                <mxCell id="4" value="Carol&lt;br&gt;(3&amp;nbsp;&lt;span style=&quot;&quot;&gt;xEGLD&lt;/span&gt;)" style="shape=umlActor;verticalLabelPosition=bottom;verticalAlign=top;html=1;outlineConnect=0;" parent="1" vertex="1">
                    <mxGeometry x="270" y="100" width="30" height="60" as="geometry"/>
                </mxCell>
                <mxCell id="5" value="Dan&lt;br&gt;(6&amp;nbsp;&lt;span style=&quot;&quot;&gt;xEGLD&lt;/span&gt;)" style="shape=umlActor;verticalLabelPosition=bottom;verticalAlign=top;html=1;outlineConnect=0;" parent="1" vertex="1">
                    <mxGeometry x="395" y="100" width="30" height="60" as="geometry"/>
                </mxCell>
                <mxCell id="6" value="" style="html=1;whiteSpace=wrap;shape=isoCube2;backgroundOutline=1;isoAngle=15;" parent="1" vertex="1">
                    <mxGeometry x="240" y="280" width="90" height="100" as="geometry"/>
                </mxCell>
                <mxCell id="9" style="edgeStyle=none;html=1;entryX=0.5;entryY=0;entryDx=0;entryDy=0;entryPerimeter=0;" parent="1" source="7" target="8" edge="1">
                    <mxGeometry relative="1" as="geometry"/>
                </mxCell>
                <mxCell id="10" value="claimRewards()" style="edgeLabel;html=1;align=center;verticalAlign=middle;resizable=0;points=[];" parent="9" vertex="1" connectable="0">
                    <mxGeometry x="-0.1466" y="-1" relative="1" as="geometry">
                        <mxPoint as="offset"/>
                    </mxGeometry>
                </mxCell>
                <mxCell id="7" value="Rather Staking&lt;br&gt;(12 xEGLD)" style="text;html=1;strokeColor=none;fillColor=none;align=center;verticalAlign=middle;whiteSpace=wrap;rounded=0;" parent="1" vertex="1">
                    <mxGeometry x="240" y="390" width="90" height="30" as="geometry"/>
                </mxCell>
                <mxCell id="8" value="Carol&lt;br&gt;(3&amp;nbsp;&lt;span style=&quot;&quot;&gt;xEGLD&lt;/span&gt;)" style="shape=umlActor;verticalLabelPosition=bottom;verticalAlign=top;html=1;outlineConnect=0;" parent="1" vertex="1">
                    <mxGeometry x="270" y="620" width="30" height="60" as="geometry"/>
                </mxCell>
                <mxCell id="13" value="Rate:&amp;nbsp;&lt;span style=&quot;color: rgb(181, 206, 168); background-color: rgb(31, 31, 31); font-family: Menlo, Monaco, &amp;quot;Courier New&amp;quot;, monospace;&quot;&gt;0.01 xEGLD&lt;/span&gt;" style="text;html=1;strokeColor=none;fillColor=none;align=center;verticalAlign=middle;whiteSpace=wrap;rounded=0;" parent="1" vertex="1">
                    <mxGeometry x="340" y="600" width="270" height="30" as="geometry"/>
                </mxCell>
                <mxCell id="14" value="Time Staking: 468 segundos" style="text;html=1;strokeColor=none;fillColor=none;align=center;verticalAlign=middle;whiteSpace=wrap;rounded=0;" parent="1" vertex="1">
                    <mxGeometry x="340" y="620" width="270" height="30" as="geometry"/>
                </mxCell>
                <mxCell id="15" value="Total Rewards: 4.68 xEGLD" style="text;html=1;strokeColor=none;fillColor=none;align=center;verticalAlign=middle;whiteSpace=wrap;rounded=0;" parent="1" vertex="1">
                    <mxGeometry x="340" y="640" width="270" height="30" as="geometry"/>
                </mxCell>
                <mxCell id="16" value="Total Staked: 12 xEGLD" style="text;html=1;strokeColor=none;fillColor=none;align=center;verticalAlign=middle;whiteSpace=wrap;rounded=0;" parent="1" vertex="1">
                    <mxGeometry x="340" y="660" width="270" height="30" as="geometry"/>
                </mxCell>
                <mxCell id="17" value="Reward = 3 x 4.68 / 12&amp;nbsp;" style="text;html=1;strokeColor=none;fillColor=none;align=center;verticalAlign=middle;whiteSpace=wrap;rounded=0;" parent="1" vertex="1">
                    <mxGeometry x="155" y="730" width="270" height="30" as="geometry"/>
                </mxCell>
                <mxCell id="18" value="&lt;font color=&quot;#ffff66&quot;&gt;Reward = 1.17 xEGLD&lt;/font&gt;" style="text;html=1;strokeColor=none;fillColor=none;align=center;verticalAlign=middle;rounded=0;" parent="1" vertex="1">
                    <mxGeometry x="155" y="750" width="270" height="30" as="geometry"/>
                </mxCell>
            </root>
        </mxGraphModel>
    </diagram>
</mxfile>